<?xml version="1.0" encoding="iso-8859-1"?>
<!-- Generator: Adobe Illustrator 19.0.0, SVG Export Plug-In . SVG Version: 6.00 Build 0)  -->
<svg version="1.1" id="Layer_1" xmlns="http://www.w3.org/2000/svg" xmlns:xlink="http://www.w3.org/1999/xlink" x="0px" y="0px"
	 viewBox="0 0 512 512" style="enable-background:new 0 0 512 512;" xml:space="preserve">

<g>
	<g>
		<path d="M229.254,26.746C102.842,26.746,0,129.59,0,256c0,64.772,27.009,123.349,70.346,165.081
			c0.493,0.649,1.082,1.205,1.747,1.663c41.07,38.731,96.387,62.509,157.161,62.509c32.979,0,64.813-6.856,94.616-20.377
			c3.844-1.742,5.546-6.272,3.802-10.116s-6.274-5.545-10.116-3.802c-27.808,12.615-57.517,19.011-88.302,19.011
			c-51.5,0-98.806-18.292-135.77-48.715c16.174-2.913,41.595-7.745,61.206-12.647c27.596-6.9,34.241-24.888,35.843-33.409
			c7.504,1.987,15.374,3.069,23.495,3.069h30.452c8.122,0,15.992-1.082,23.496-3.069c1.601,8.521,8.247,26.509,35.843,33.409
			c0.622,0.155,1.245,0.229,1.859,0.229c3.424,0,6.54-2.317,7.408-5.791c1.024-4.093-1.466-8.243-5.56-9.267
			c-23.611-5.903-24.73-21.498-24.779-23.153c0-0.233-0.048-0.453-0.069-0.682c29.712-13.643,50.928-42.692,53.333-76.873
			c13.285-4.151,23.154-19.198,23.154-37.073c0-17.771-9.756-32.748-22.925-37v-69.944c0-42.161-34.289-76.459-76.436-76.459
			h-61.099c-42.147,0-76.436,34.298-76.436,76.459v68.827c0,0.001,0,0.003,0,0.003V219c-13.169,4.252-22.925,19.229-22.925,37
			c0,17.871,9.867,32.918,23.149,37.071c2.387,34.161,23.605,63.221,53.328,76.871c-0.015,0.195-0.059,0.383-0.059,0.582
			c-0.049,1.757-1.169,17.353-24.78,23.256c-24.78,6.196-60.197,12.473-71.891,14.49C39.726,369.445,15.284,315.526,15.284,256
			c0-117.983,95.987-213.97,213.97-213.97s213.97,95.987,213.97,213.97c0,19.198-2.542,38.229-7.555,56.567
			c-1.113,4.071,1.285,8.272,5.356,9.386c4.07,1.114,8.274-1.284,9.386-5.356c5.372-19.649,8.096-40.037,8.096-60.597
			C458.507,129.59,355.665,26.746,229.254,26.746z M137.552,149.056c0-33.731,27.433-61.175,61.152-61.175h61.099
			c33.719,0,61.152,27.444,61.152,61.175v31.709c-14.77-16.796-38.786-39.392-61.134-39.392c-26.482,0-93.86,43.035-122.269,62
			V149.056z M137.552,286.567c0-4.22-3.422-7.642-7.642-7.642c-8.284,0-15.284-10.498-15.284-22.925s6.999-22.925,15.284-22.925
			c4.22,0,7.642-3.422,7.642-7.642v-3.624c39.437-27.023,102.161-65.152,122.269-65.152c10.245,0,24.559,8.653,40.304,24.366
			c9.924,9.902,17.756,19.924,20.83,24.005v20.405c0,4.22,3.422,7.642,7.642,7.642c8.284,0,15.284,10.498,15.284,22.925
			s-6.999,22.925-15.284,22.925c-4.22,0-7.642,3.489-7.642,7.709c0,42.101-34.307,76.351-76.476,76.351h-30.452
			C171.859,362.985,137.552,328.735,137.552,286.567z" fill="#F7901E"/>
	</g>
</g>
<g>
</g>
<g>
</g>
<g>
</g>
<g>
</g>
<g>
</g>
<g>
</g>
<g>
</g>
<g>
</g>
<g>
</g>
<g>
</g>
<g>
</g>
<g>
</g>
<g>
</g>
<g>
</g>
<g>
</g>
</svg>
